<svg width="19" height="17" viewBox="0 0 19 17" fill="none" xmlns="http://www.w3.org/2000/svg">
<path d="M18.9172 7.30102L10.2458 0.264946C10.0351 0.09275 9.77191 -0.00123596 9.50048 -0.00123596C9.22906 -0.00123596 8.96589 0.09275 8.75516 0.264946L0.0837725 7.30102C0.0608651 7.31943 0.0418196 7.34224 0.0277417 7.36812C0.0136639 7.39401 0.00483431 7.42245 0.00176548 7.45179C-0.00130335 7.48114 0.00144976 7.51081 0.00986498 7.53907C0.0182802 7.56734 0.0321899 7.59364 0.0507864 7.61645L0.519189 8.1975C0.537803 8.22063 0.560764 8.23984 0.586759 8.25403C0.612754 8.26821 0.641273 8.2771 0.670684 8.28019C0.700095 8.28327 0.729822 8.28049 0.758164 8.272C0.786505 8.26351 0.812906 8.24948 0.835856 8.23071L2.11143 7.1951V16.4681C2.11143 16.609 2.16703 16.7441 2.26601 16.8437C2.36499 16.9433 2.49923 16.9993 2.63921 16.9993H16.3614C16.5014 16.9993 16.6356 16.9433 16.7346 16.8437C16.8336 16.7441 16.8892 16.609 16.8892 16.4681V7.19842L18.1691 8.23735C18.2155 8.27517 18.2749 8.29292 18.3342 8.28669C18.3936 8.28047 18.4481 8.25078 18.4857 8.20414L18.9538 7.62309C18.9895 7.57476 19.0055 7.51458 18.9987 7.45477C18.9919 7.39496 18.9628 7.33999 18.9172 7.30102ZM7.91699 15.9368V10.6243H11.0837V15.9368H7.91699ZM15.8337 15.9368H12.1392V10.0931C12.1392 9.95217 12.0836 9.81705 11.9846 9.71742C11.8856 9.61779 11.7514 9.56182 11.6114 9.56182H7.38921C7.24923 9.56182 7.11499 9.61779 7.01601 9.71742C6.91704 9.81705 6.86143 9.95217 6.86143 10.0931V15.9368H3.16698V6.33846L9.35881 1.31151C9.39789 1.2793 9.44684 1.2617 9.49735 1.2617C9.54786 1.2617 9.59681 1.2793 9.63589 1.31151L15.8337 6.34112V15.9368Z" fill="#404040"/>
</svg>
