<svg width="29" height="35" viewBox="0 0 29 35" fill="none" xmlns="http://www.w3.org/2000/svg">
<path d="M7.5 17.0625V14.4375H21.5V17.0625H7.5ZM7.5 10.0625V7.4375H21.5V10.0625H7.5ZM3.125 21.4375H17.125C17.8959 21.4375 18.6136 21.6125 19.2782 21.9625C19.9427 22.3125 20.5083 22.7792 20.975 23.3625L25.875 29.75V2.625H3.125V21.4375ZM3.125 32.375H24.5625L18.9187 24.9812C18.6981 24.693 18.4315 24.4678 18.1189 24.3057C17.8063 24.1436 17.475 24.0625 17.125 24.0625H3.125V32.375ZM25.875 35H3.125C2.425 35 1.8125 34.7375 1.2875 34.2125C0.7625 33.6875 0.5 33.075 0.5 32.375V2.625C0.5 1.925 0.7625 1.3125 1.2875 0.7875C1.8125 0.2625 2.425 0 3.125 0H25.875C26.575 0 27.1875 0.2625 27.7125 0.7875C28.2375 1.3125 28.5 1.925 28.5 2.625V32.375C28.5 33.075 28.2375 33.6875 27.7125 34.2125C27.1875 34.7375 26.575 35 25.875 35Z" fill="white"/>
</svg>
