<svg width="49" height="30" viewBox="0 0 49 30" fill="none" xmlns="http://www.w3.org/2000/svg">
<path d="M46.412 7.42895L26.537 1.06989C25.2013 0.643127 23.7995 0.643127 22.4638 1.06989L2.58875 7.42895C1.3205 7.83492 0.5 8.94227 0.5 10.25C0.5 11.5577 1.3205 12.6651 2.588 13.0711L4.81625 13.7836C4.56875 14.2422 4.38575 14.7358 4.2665 15.2531C3.46475 15.6375 2.9 16.4339 2.9 17.375C2.9 18.3198 3.46775 19.1206 4.27475 19.5029L2.921 27.805C2.80025 28.5464 3.21425 29.25 3.7715 29.25H6.82775C7.385 29.25 7.79975 28.5464 7.67825 27.805L6.32525 19.5029C7.13225 19.1206 7.7 18.3198 7.7 17.375C7.7 16.5883 7.28825 15.9248 6.69275 15.4921C6.8045 15.1462 6.97775 14.8345 7.1855 14.5413L11.1958 15.8246L10.1 24.5C10.1 27.1236 16.547 29.25 24.5 29.25C32.453 29.25 38.9 27.1236 38.9 24.5L37.8043 15.8246L46.412 13.0703C47.6795 12.6651 48.5 11.5577 48.5 10.25C48.5 8.94227 47.6795 7.83492 46.412 7.42895ZM36.461 24.3412C35.654 25.1821 31.553 26.875 24.5 26.875C17.447 26.875 13.346 25.1821 12.539 24.3412L13.5208 16.5682L22.4638 19.4294C22.6588 19.4917 24.3928 20.1144 26.537 19.4294L35.48 16.5682L36.461 24.3412ZM45.671 10.8126L25.796 17.1716C24.9478 17.4433 24.0523 17.4433 23.204 17.1716L10.0288 12.956L24.7205 10.2292C25.3723 10.109 25.8013 9.48852 25.679 8.84356C25.5575 8.19785 24.917 7.77555 24.2795 7.89578L8.996 10.7309C8.066 10.9031 7.23275 11.2987 6.515 11.8316L3.32825 10.8118C2.7395 10.6226 2.76875 9.86629 3.32825 9.68742L23.2033 3.32836C24.3358 2.96617 25.2913 3.16731 25.7952 3.32836L45.6703 9.68742C46.2245 9.86481 46.2635 10.6226 45.671 10.8126Z" fill="#F0F9FF"/>
</svg>
